<svg width="571" height="150" viewBox="0 0 571 150" fill="none" xmlns="http://www.w3.org/2000/svg">
<path d="M176.498 91.65C182.095 92.3425 186.365 94.2467 189.308 97.3628C192.251 100.479 193.723 104.374 193.723 109.048C193.723 112.568 192.828 115.77 191.04 118.656C189.251 121.541 186.539 123.849 182.903 125.58C179.326 127.254 174.94 128.09 169.747 128.09C165.419 128.09 161.235 127.484 157.196 126.273C153.214 125.003 149.81 123.272 146.982 121.079L151.829 112.337C154.022 114.184 156.677 115.655 159.793 116.751C162.966 117.79 166.227 118.309 169.574 118.309C173.555 118.309 176.671 117.502 178.922 115.886C181.23 114.212 182.384 111.962 182.384 109.134C182.384 106.307 181.288 104.114 179.095 102.556C176.96 100.94 173.671 100.133 169.227 100.133H163.688V92.429L177.45 76.0699H149.925V66.6352H191.213V74.1656L176.498 91.65ZM205.411 66.6352H231.897C238.36 66.6352 244.101 67.9047 249.122 70.4437C254.142 72.925 258.037 76.4738 260.807 81.0901C263.577 85.6488 264.961 90.9287 264.961 96.93C264.961 102.931 263.577 108.24 260.807 112.856C258.037 117.415 254.142 120.964 249.122 123.503C244.101 125.984 238.36 127.225 231.897 127.225H205.411V66.6352ZM231.378 117.704C235.821 117.704 239.716 116.867 243.063 115.193C246.467 113.462 249.064 111.039 250.853 107.923C252.699 104.749 253.623 101.085 253.623 96.93C253.623 92.7753 252.699 89.1399 250.853 86.0239C249.064 82.8501 246.467 80.4265 243.063 78.7531C239.716 77.022 235.821 76.1564 231.378 76.1564H216.663V117.704H231.378Z" fill="#383838"/>
<path d="M311.194 108.961H274.148L265.666 127.225H263.675L291.806 66.6352H293.537L321.668 127.225H319.677L311.194 108.961ZM310.415 107.317L292.671 68.9722L274.927 107.317H310.415ZM332.442 62.9998H334.173V127.225H332.442V62.9998ZM368.363 82.2154C373.556 82.2154 377.509 83.5714 380.221 86.2835C382.991 88.9379 384.376 92.8041 384.376 97.8821V127.225H382.645V117.704C381.202 120.762 379.009 123.157 376.066 124.888C373.181 126.619 369.69 127.484 365.593 127.484C360.63 127.484 356.735 126.359 353.908 124.109C351.138 121.801 349.753 118.742 349.753 114.934C349.753 111.356 350.994 108.471 353.475 106.278C356.014 104.028 360.082 102.902 365.68 102.902H382.645V97.9686C382.645 93.2946 381.433 89.7746 379.009 87.4088C376.643 85.0429 373.123 83.8599 368.449 83.8599C365.218 83.8599 362.188 84.437 359.361 85.5911C356.591 86.6875 354.196 88.1878 352.177 90.092L350.965 88.8802C353.1 86.8029 355.697 85.1871 358.755 84.0331C361.813 82.8213 365.016 82.2154 368.363 82.2154ZM365.593 125.84C373.902 125.84 379.586 122.031 382.645 114.414V104.547H365.593C360.746 104.547 357.168 105.47 354.86 107.317C352.609 109.163 351.484 111.673 351.484 114.847C351.484 118.252 352.725 120.935 355.206 122.897C357.687 124.859 361.15 125.84 365.593 125.84ZM405.514 94.0736C406.784 90.2651 408.919 87.3511 411.92 85.3314C414.92 83.254 418.642 82.2154 423.085 82.2154V83.9465H422.566C417.2 83.9465 413.016 85.6776 410.015 89.1399C407.015 92.5444 405.514 97.2185 405.514 103.162V127.225H403.783V82.475H405.514V94.0736ZM491.729 82.2154C497.153 82.2154 501.394 83.8311 504.453 87.0625C507.569 90.2363 509.127 94.8238 509.127 100.825V127.225H507.395V100.825C507.395 95.3431 506.039 91.1595 503.327 88.2743C500.615 85.3314 496.778 83.8599 491.815 83.8599C486.16 83.8599 481.688 85.6199 478.399 89.1399C475.11 92.6021 473.465 97.1896 473.465 102.902V127.225H471.734V100.825C471.734 95.3431 470.378 91.1595 467.666 88.2743C464.954 85.3314 461.117 83.8599 456.154 83.8599C450.499 83.8599 446.027 85.6199 442.738 89.1399C439.449 92.6021 437.804 97.1896 437.804 102.902V127.225H436.073V82.475H437.804V94.3333C439.131 90.5248 441.382 87.553 444.555 85.418C447.729 83.2829 451.567 82.2154 456.067 82.2154C460.626 82.2154 464.377 83.3695 467.32 85.6776C470.263 87.9281 472.167 91.2172 473.033 95.5451C474.187 91.4481 476.379 88.2166 479.611 85.8507C482.9 83.4272 486.939 82.2154 491.729 82.2154Z" fill="#383838"/>
<path d="M62.917 43H31.4585L62.917 148.517H94.3755L62.917 43Z" fill="#003066"/>
<path d="M31.4585 43H62.917L31.4585 148.517H0L31.4585 43Z" fill="#0070ED"/>
<path d="M102.896 43H71.437L102.896 148.517H134.354L102.896 43Z" fill="#606060"/>
<path d="M71.4371 43H102.896L71.4371 148.517H39.9786L71.4371 43Z" fill="#94DCAA"/>
</svg>
